<svg width="94" height="94" viewBox="0 0 94 94" fill="none" xmlns="http://www.w3.org/2000/svg">
<rect y="0.209473" width="93.1937" height="93.1937" rx="46.5969" fill="#262626"/>
<path d="M23.675 48.7908L22.05 48.6189C21.05 48.5147 20.2792 48.1918 19.7375 47.6501C19.1959 47.1085 18.925 46.3741 18.925 45.447C18.925 44.4679 19.2896 43.6918 20.0188 43.1189C20.748 42.546 21.7375 42.2595 22.9875 42.2595C24.1959 42.2595 25.1698 42.5512 25.9094 43.1345C26.6594 43.7179 27.0865 44.5199 27.1907 45.5408H24.8625C24.6959 44.572 24.0605 44.0876 22.9563 44.0876C22.4459 44.0876 22.0344 44.2022 21.7219 44.4314C21.4094 44.6501 21.2532 44.947 21.2532 45.322C21.2532 45.8949 21.6594 46.2335 22.4719 46.3376L23.9563 46.4939C26.2375 46.7335 27.3782 47.822 27.3782 49.7595C27.3782 50.4054 27.2115 50.9679 26.8782 51.447C26.5448 51.9158 26.0761 52.2804 25.4719 52.5408C24.8782 52.8012 24.175 52.9314 23.3625 52.9314C22.0605 52.9314 21.0136 52.6345 20.2219 52.0408C19.4303 51.4366 18.9719 50.6189 18.8469 49.5876H21.2063C21.373 50.5876 22.0969 51.0876 23.3782 51.0876C23.8886 51.0876 24.2948 50.9731 24.5969 50.7439C24.9094 50.5147 25.0657 50.2074 25.0657 49.822C25.0657 49.2283 24.6021 48.8845 23.675 48.7908ZM36.175 42.4001V44.572H31.0657V46.447H35.7219V48.6033H31.0657V50.6501H36.175V52.8064H28.7532V42.4001H36.175ZM44.9719 42.4001V44.572H39.8625V46.447H44.5188V48.6033H39.8625V50.6501H44.9719V52.8064H37.55V42.4001H44.9719ZM58.925 52.8064H56.5188L55.8625 50.7126H52.175L51.5344 52.8064H49.1125L52.7219 42.4001H55.3313L58.925 52.8064ZM54.0032 44.8533L52.7532 48.8845H55.2844L54.0032 44.8533ZM66.6438 52.8064H60.0344V42.4001H62.3469V50.6501H66.6438V52.8064ZM74.4875 52.8064H67.8782V42.4001H70.1907V50.6501H74.4875V52.8064Z" fill="white"/>
</svg>
