<?xml version="1.0" encoding="UTF-8"?>
<!-- Generated by Pixelmator Pro 3.2.2 -->
<svg width="958" height="958" viewBox="0 0 958 958" xmlns="http://www.w3.org/2000/svg" xmlns:xlink="http://www.w3.org/1999/xlink">
    <g id="Group">
        <path id="Path" fill="#ea0009" stroke="none" d="M 197.419785 249.21582 C 97.68602 378.33374 89.273636 523.921021 103.545547 596.596252 C 105.911125 608.640259 120.027809 612.228638 128.787521 603.632202 C 184.750015 548.7052 278.236938 447.879883 364.398224 412.813904 C 470.511749 369.628418 593.331543 382.034058 442.132782 473.273865 C 312.869202 551.278809 246.336807 677.251709 219.81279 749.403625 C 215.422577 761.345215 221.611832 774.3526 233.369278 779.213501 L 408.60968 851.659851 C 417.105255 855.171448 426.164246 845.814758 423.104065 837.14624 C 410.40387 801.167969 397.001038 740.744751 403.881683 671.929932 C 414.987762 560.880432 503.826752 481.911926 555.65033 449.830902 C 597.108765 424.166443 590.197693 385.668884 581.561279 369.628418 C 509.735901 275.414795 323.16861 240.99707 224.071823 236.800354 C 213.681168 236.360291 203.777115 240.98584 197.419785 249.21582 Z"/>
        <path id="path1" fill="#e7000a" stroke="none" d="M 847.628479 579.032043 C 932.754272 270.579651 593.570007 9.397217 336.088074 128.086121 C 329.293823 131.218384 331.406555 141.011963 338.868195 141.570557 C 425.493683 148.065491 586.927856 176.031555 660.529785 270.917358 C 762.942871 402.941895 664.23175 516.459351 639.554871 537.435852 C 614.876282 558.410889 579.093262 557.178467 571.690796 555.944458 C 564.286804 554.710449 549.480225 560.878906 532.20575 581.855347 C 514.931213 602.831909 500.124756 649.71936 532.20575 712.647461 C 564.286804 775.5755 643.25531 806.422485 702.481262 802.720398 C 761.708862 799.018372 751.836853 760.767334 754.30481 748.428894 C 755.506775 742.420471 773.839294 714.771362 793.10321 686.354004 C 815.744324 652.952515 836.893799 617.931335 847.628479 579.032043 Z"/>
    </g>
</svg>
