<svg width="43" height="44" viewBox="0 0 43 44" fill="none" xmlns="http://www.w3.org/2000/svg">
<rect y="0.250244" width="43" height="43" rx="21.5" fill="#262626"/>
<g clip-path="url(#clip0_534_1077)">
<g filter="url(#filter0_d_534_1077)">
<path fill-rule="evenodd" clip-rule="evenodd" d="M21.0164 31.4639L22.6586 26.3904C22.9924 25.3586 23.8068 24.5555 24.8425 24.2389L29.9409 22.6711C30.6465 22.4556 30.6523 21.46 29.9523 21.2329L24.8769 19.5907C23.8469 19.2569 23.0438 18.4425 22.7254 17.4068L21.1594 12.3085C20.9439 11.6046 19.9483 11.5971 19.7212 12.299L18.079 17.3725C17.7452 18.4024 16.9308 19.2055 15.8951 19.524L10.7968 21.0899C10.0911 21.3074 10.0834 22.3011 10.7853 22.528L15.8608 24.1703C16.8908 24.5041 17.6938 25.3204 18.0123 26.356L19.5782 31.4525C19.7937 32.1582 20.7894 32.1659 21.0164 31.4639Z" fill="#F62421"/>
</g>
</g>
<rect x="2.6874" y="2.93771" width="37.625" height="37.625" rx="18.8125" stroke="#F62421" stroke-width="1.075"/>
<defs>
<filter id="filter0_d_534_1077" x="2.54952" y="4.06289" width="35.6378" height="35.6369" filterUnits="userSpaceOnUse" color-interpolation-filters="sRGB">
<feFlood flood-opacity="0" result="BackgroundImageFix"/>
<feColorMatrix in="SourceAlpha" type="matrix" values="0 0 0 0 0 0 0 0 0 0 0 0 0 0 0 0 0 0 127 0" result="hardAlpha"/>
<feOffset/>
<feGaussianBlur stdDeviation="3.85683"/>
<feComposite in2="hardAlpha" operator="out"/>
<feColorMatrix type="matrix" values="0 0 0 0 0.964706 0 0 0 0 0.141176 0 0 0 0 0.129412 0 0 0 0.36 0"/>
<feBlend mode="normal" in2="BackgroundImageFix" result="effect1_dropShadow_534_1077"/>
<feBlend mode="normal" in="SourceGraphic" in2="effect1_dropShadow_534_1077" result="shape"/>
</filter>
<clipPath id="clip0_534_1077">
<rect x="2.1499" y="2.40021" width="38.7" height="38.7" rx="19.35" fill="white"/>
</clipPath>
</defs>
</svg>
